<?xml version="1.0" encoding="utf-8"?>
<!-- Generator: Adobe Illustrator 15.0.0, SVG Export Plug-In . SVG Version: 6.00 Build 0)  -->
<!DOCTYPE svg PUBLIC "-//W3C//DTD SVG 1.1//EN" "http://www.w3.org/Graphics/SVG/1.1/DTD/svg11.dtd">
<svg version="1.1" id="Ebene_1" xmlns="http://www.w3.org/2000/svg" xmlns:xlink="http://www.w3.org/1999/xlink" x="0px" y="0px"
	 width="324.391px" height="80.245px" viewBox="0 0 324.391 80.245" enable-background="new 0 0 324.391 80.245"
	 xml:space="preserve">
<g>
	<polygon fill="#7FFF7F" points="8.145,58.715 8.145,22.664 58.854,3.077 161.673,20.641 264.491,15.164 315.201,27.277 
		315.201,59.004 264.491,54.143 161.673,72.628 58.854,54.29 	"/>
	<polygon fill="#7FFFFF" points="0,80.245 0,35.762 58.856,16.342 161.674,0 264.492,23.01 324.391,17.288 324.391,44.816 
		264.492,75.463 161.674,53.84 58.856,63.357 	"/>
	<polygon fill="#3FFFBF" points="236.174,16.673 161.673,20.641 99.081,9.948 58.854,16.342 8.145,32.964 8.145,58.715 
		58.854,54.289 92.322,60.26 161.673,53.84 209.836,63.969 264.491,54.143 299.585,57.508 315.201,49.518 315.201,27.277 
		287.953,20.769 264.491,23.01 	"/>
	<path d="M48.044,48.196c-1.049,0-1.573-0.534-1.573-1.603V28.039c0-1.048,0.524-1.572,1.573-1.572c1.046,0,1.571,0.524,1.571,1.572
		v8.22h0.06l9.278-8.977c0.563-0.543,1.158-0.815,1.783-0.815c0.463,0,0.799,0.116,1.011,0.348c0.211,0.232,0.298,0.514,0.258,0.848
		c-0.041,0.331-0.211,0.639-0.514,0.92l-8.825,8.402l9.279,8.915c0.362,0.362,0.553,0.72,0.574,1.072
		c0.019,0.354-0.091,0.646-0.333,0.878c-0.24,0.229-0.584,0.347-1.026,0.347c-0.405,0-0.731-0.08-0.983-0.242
		c-0.253-0.161-0.529-0.393-0.83-0.694l-9.671-9.218h-0.06v8.552C49.615,47.662,49.09,48.196,48.044,48.196z"/>
	<path d="M70.556,48.257c-1.57,0-2.755-0.454-3.55-1.36c-0.796-0.906-1.193-2.236-1.193-3.989V28.009
		c0-1.027,0.502-1.542,1.51-1.542c1.027,0,1.542,0.515,1.542,1.542v14.718c0,1.994,0.806,2.991,2.418,2.991
		c0.181,0,0.343-0.011,0.483-0.031c0.14-0.019,0.281-0.029,0.423-0.029c0.242-0.02,0.413,0.045,0.512,0.197
		c0.103,0.15,0.152,0.457,0.152,0.92c0,0.827-0.383,1.3-1.149,1.422c-0.201,0.02-0.397,0.034-0.587,0.046
		C70.923,48.25,70.737,48.257,70.556,48.257z"/>
	<path d="M76.873,48.165c-1.007,0-1.51-0.554-1.51-1.661V34.718c0-1.088,0.502-1.632,1.51-1.632c1.028,0,1.542,0.544,1.542,1.632
		v11.786C78.416,47.611,77.901,48.165,76.873,48.165z M76.873,29.943c-0.603,0-1.072-0.151-1.404-0.454s-0.498-0.726-0.498-1.269
		c0-1.148,0.635-1.725,1.902-1.725c1.271,0,1.905,0.576,1.905,1.725S78.144,29.943,76.873,29.943z"/>
	<path d="M84.58,48.196c-1.008,0-1.512-0.514-1.512-1.541V34.566c0-1.027,0.494-1.541,1.482-1.541c0.986,0,1.479,0.514,1.479,1.541
		v1.059c0.444-0.847,1.059-1.501,1.845-1.966c0.785-0.463,1.7-0.695,2.749-0.695c2.257,0,3.718,0.989,4.382,2.963
		c0.464-0.927,1.127-1.653,1.994-2.177c0.867-0.523,1.855-0.786,2.962-0.786c3.305,0,4.956,1.976,4.956,5.925v7.767
		c0,1.027-0.512,1.541-1.54,1.541c-1.008,0-1.512-0.514-1.512-1.541v-7.616c0-1.249-0.217-2.166-0.649-2.75
		c-0.434-0.584-1.144-0.877-2.131-0.877c-1.108,0-1.985,0.389-2.628,1.164c-0.645,0.775-0.967,1.828-0.967,3.158v6.921
		c0,1.027-0.504,1.541-1.512,1.541c-1.026,0-1.54-0.514-1.54-1.541v-7.616c0-1.249-0.212-2.166-0.636-2.75
		c-0.423-0.584-1.127-0.877-2.114-0.877c-1.11,0-1.981,0.389-2.615,1.164c-0.634,0.775-0.952,1.828-0.952,3.158v6.921
		C86.121,47.683,85.607,48.196,84.58,48.196z"/>
	<path d="M113.591,46.08c1.088,0,1.995-0.382,2.721-1.147c0.724-0.767,1.087-1.731,1.087-2.901v-0.816h-0.998
		c-1.47,0-2.624,0.071-3.46,0.212c-0.836,0.141-1.431,0.377-1.783,0.71c-0.352,0.333-0.529,0.791-0.529,1.375
		c0,0.767,0.263,1.387,0.786,1.859C111.94,45.844,112.665,46.08,113.591,46.08z M112.987,48.257c-1.026,0-1.945-0.202-2.75-0.604
		c-0.807-0.403-1.445-0.947-1.918-1.632c-0.473-0.685-0.711-1.461-0.711-2.328c0-1.088,0.277-1.943,0.832-2.567
		c0.554-0.625,1.47-1.079,2.75-1.36c1.279-0.282,3.006-0.423,5.183-0.423h1.027v-0.786c0-1.148-0.242-1.975-0.725-2.478
		c-0.483-0.505-1.28-0.756-2.388-0.756c-0.645,0-1.314,0.08-2.009,0.242c-0.695,0.161-1.417,0.434-2.161,0.815
		c-0.423,0.201-0.771,0.231-1.042,0.091c-0.272-0.141-0.458-0.363-0.56-0.665c-0.102-0.302-0.091-0.614,0.031-0.937
		c0.12-0.322,0.372-0.564,0.754-0.727c0.887-0.401,1.763-0.699,2.63-0.891c0.865-0.191,1.681-0.288,2.447-0.288
		c2.014,0,3.506,0.479,4.472,1.437c0.967,0.956,1.452,2.453,1.452,4.488v7.767c0,1.027-0.474,1.541-1.42,1.541
		c-0.967,0-1.452-0.514-1.452-1.541v-1.118c-0.362,0.845-0.926,1.511-1.691,1.994C114.971,48.015,114.055,48.257,112.987,48.257z"/>
	<path d="M128.279,45.355h4.2c5.259,0,7.89-2.68,7.89-8.039c0-5.338-2.63-8.008-7.89-8.008h-4.2V45.355z M126.83,47.984
		c-1.13,0-1.694-0.563-1.694-1.692V28.371c0-1.129,0.564-1.692,1.694-1.692h5.832c3.506,0,6.21,0.917,8.114,2.75
		c1.903,1.835,2.856,4.462,2.856,7.888c0,3.425-0.953,6.061-2.856,7.902c-1.903,1.845-4.608,2.766-8.114,2.766H126.83z"/>
	<path d="M151.911,46.08c1.088,0,1.995-0.382,2.72-1.147c0.725-0.767,1.087-1.731,1.087-2.901v-0.816h-0.998
		c-1.469,0-2.623,0.071-3.459,0.212c-0.838,0.141-1.431,0.377-1.783,0.71s-0.53,0.791-0.53,1.375c0,0.767,0.263,1.387,0.787,1.859
		C150.259,45.844,150.983,46.08,151.911,46.08z M151.306,48.257c-1.027,0-1.945-0.202-2.751-0.604
		c-0.806-0.403-1.445-0.947-1.918-1.632c-0.473-0.685-0.709-1.461-0.709-2.328c0-1.088,0.276-1.943,0.832-2.567
		c0.553-0.625,1.469-1.079,2.75-1.36c1.279-0.282,3.007-0.423,5.183-0.423h1.027v-0.786c0-1.148-0.241-1.975-0.725-2.478
		c-0.484-0.505-1.28-0.756-2.388-0.756c-0.645,0-1.315,0.08-2.01,0.242c-0.695,0.161-1.416,0.434-2.16,0.815
		c-0.424,0.201-0.772,0.231-1.042,0.091c-0.273-0.141-0.459-0.363-0.56-0.665c-0.102-0.302-0.091-0.614,0.03-0.937
		s0.373-0.564,0.756-0.727c0.886-0.401,1.762-0.699,2.629-0.891c0.865-0.191,1.681-0.288,2.448-0.288
		c2.013,0,3.505,0.479,4.473,1.437c0.966,0.956,1.45,2.453,1.45,4.488v7.767c0,1.027-0.474,1.541-1.42,1.541
		c-0.967,0-1.452-0.514-1.452-1.541v-1.118c-0.361,0.845-0.925,1.511-1.69,1.994C153.289,48.015,152.373,48.257,151.306,48.257z"/>
	<path d="M169.409,48.257c-1.853,0-3.233-0.474-4.141-1.42c-0.905-0.948-1.359-2.318-1.359-4.11v-7.133h-1.813
		c-0.845,0-1.269-0.393-1.269-1.178c0-0.786,0.423-1.179,1.269-1.179h1.813v-3.113c0-1.027,0.515-1.542,1.54-1.542
		c1.009,0,1.513,0.515,1.513,1.542v3.113h3.536c0.846,0,1.269,0.393,1.269,1.179c0,0.785-0.423,1.178-1.269,1.178h-3.536v6.891
		c0,1.068,0.226,1.874,0.681,2.418c0.452,0.544,1.192,0.816,2.22,0.816c0.362,0,0.676-0.035,0.937-0.106
		c0.264-0.07,0.494-0.116,0.696-0.137c0.222,0,0.403,0.077,0.543,0.228c0.141,0.151,0.212,0.438,0.212,0.861
		c0,0.322-0.055,0.609-0.166,0.86c-0.11,0.253-0.309,0.419-0.589,0.499c-0.243,0.102-0.569,0.182-0.983,0.241
		C170.099,48.227,169.731,48.257,169.409,48.257z"/>
	<path d="M180.771,35.11c-1.269,0-2.275,0.394-3.021,1.179c-0.747,0.785-1.2,1.834-1.361,3.144h8.25
		c-0.062-1.371-0.423-2.433-1.087-3.188C182.887,35.488,181.96,35.11,180.771,35.11z M181.225,48.257
		c-2.418,0-4.32-0.681-5.711-2.04s-2.086-3.22-2.086-5.576c0-1.511,0.307-2.846,0.922-4.004s1.465-2.061,2.555-2.705
		c1.087-0.645,2.336-0.968,3.747-0.968c2.034,0,3.636,0.651,4.805,1.95c1.169,1.301,1.753,3.088,1.753,5.364
		c0,0.685-0.403,1.026-1.209,1.026h-9.61c0.221,3.064,1.844,4.595,4.866,4.595c0.604,0,1.238-0.076,1.903-0.226
		c0.665-0.152,1.31-0.429,1.935-0.832c0.423-0.242,0.789-0.328,1.104-0.258c0.311,0.071,0.537,0.242,0.68,0.514
		c0.141,0.273,0.166,0.576,0.076,0.907c-0.092,0.333-0.328,0.62-0.711,0.86c-0.687,0.465-1.486,0.812-2.402,1.043
		C182.923,48.141,182.051,48.257,181.225,48.257z"/>
	<path d="M191.742,48.196c-1.007,0-1.51-0.514-1.51-1.541V34.566c0-1.027,0.492-1.541,1.479-1.541c0.988,0,1.482,0.514,1.482,1.541
		v1.118c0.503-0.886,1.193-1.561,2.07-2.025c0.875-0.463,1.858-0.695,2.946-0.695c3.485,0,5.228,1.976,5.228,5.925v7.767
		c0,1.027-0.502,1.541-1.51,1.541c-1.028,0-1.541-0.514-1.541-1.541v-7.586c0-1.269-0.249-2.196-0.74-2.78
		c-0.495-0.584-1.266-0.877-2.312-0.877c-1.23,0-2.212,0.389-2.947,1.164c-0.734,0.775-1.104,1.799-1.104,3.067v7.012
		C193.283,47.683,192.771,48.196,191.742,48.196z"/>
	<path d="M215.373,48.257c-1.391,0-2.726-0.161-4.004-0.485c-1.279-0.32-2.393-0.804-3.34-1.449
		c-0.383-0.262-0.614-0.579-0.695-0.951c-0.08-0.374-0.046-0.716,0.106-1.028c0.15-0.312,0.382-0.528,0.695-0.65
		c0.312-0.12,0.669-0.049,1.071,0.212c0.907,0.585,1.864,1.012,2.873,1.284c1.006,0.272,2.104,0.409,3.293,0.409
		c1.712,0,2.977-0.307,3.793-0.922c0.815-0.615,1.225-1.416,1.225-2.402c0-0.807-0.295-1.447-0.878-1.92
		c-0.584-0.473-1.561-0.851-2.931-1.134l-3.234-0.664c-1.913-0.403-3.339-1.068-4.276-1.995c-0.936-0.926-1.404-2.176-1.404-3.747
		c0-1.269,0.337-2.388,1.012-3.354c0.676-0.968,1.616-1.717,2.825-2.252c1.21-0.533,2.601-0.8,4.171-0.8
		c1.249,0,2.424,0.161,3.521,0.482c1.1,0.323,2.08,0.816,2.947,1.481c0.341,0.242,0.543,0.533,0.604,0.877
		c0.061,0.343,0.01,0.659-0.15,0.951c-0.162,0.292-0.404,0.488-0.726,0.59c-0.323,0.102-0.695,0.02-1.119-0.242
		c-0.786-0.523-1.592-0.901-2.418-1.134c-0.826-0.229-1.721-0.347-2.688-0.347c-1.492,0-2.674,0.332-3.551,0.997
		c-0.876,0.665-1.315,1.552-1.315,2.659c0,0.847,0.273,1.521,0.816,2.024c0.543,0.504,1.451,0.888,2.72,1.149l3.203,0.664
		c2.015,0.424,3.517,1.072,4.503,1.95c0.986,0.876,1.48,2.06,1.48,3.551c0,1.249-0.331,2.337-0.998,3.264
		c-0.664,0.927-1.601,1.646-2.81,2.16C218.486,47.999,217.045,48.257,215.373,48.257z"/>
	<path d="M232.934,48.257c-1.512,0-2.816-0.317-3.914-0.952c-1.099-0.635-1.949-1.531-2.554-2.69
		c-0.604-1.157-0.907-2.522-0.907-4.095c0-2.337,0.664-4.18,1.995-5.529c1.329-1.35,3.123-2.026,5.38-2.026
		c0.705,0,1.445,0.106,2.221,0.317c0.775,0.212,1.496,0.561,2.161,1.044c0.323,0.202,0.507,0.458,0.558,0.77
		c0.053,0.313,0,0.604-0.15,0.877s-0.368,0.454-0.648,0.545c-0.283,0.091-0.605,0.034-0.968-0.167
		c-0.483-0.343-0.979-0.59-1.48-0.74c-0.505-0.152-0.987-0.227-1.452-0.227c-1.431,0-2.533,0.447-3.309,1.344
		c-0.775,0.897-1.162,2.172-1.162,3.824s0.387,2.945,1.162,3.883s1.878,1.405,3.309,1.405c0.465,0,0.943-0.069,1.436-0.212
		c0.494-0.141,0.992-0.382,1.497-0.725c0.362-0.201,0.681-0.252,0.951-0.151c0.272,0.101,0.474,0.286,0.604,0.559
		c0.132,0.272,0.171,0.565,0.122,0.876c-0.052,0.314-0.237,0.57-0.56,0.771c-0.645,0.464-1.346,0.797-2.101,0.998
		S233.639,48.257,232.934,48.257z"/>
	<path d="M242.361,48.196c-1.007,0-1.51-0.514-1.51-1.542V28.009c0-1.027,0.503-1.542,1.51-1.542c1.027,0,1.541,0.515,1.541,1.542
		v7.523c0.505-0.845,1.185-1.483,2.04-1.917c0.856-0.435,1.819-0.651,2.887-0.651c3.485,0,5.228,1.976,5.228,5.924v7.767
		c0,1.028-0.503,1.542-1.51,1.542c-1.027,0-1.541-0.514-1.541-1.542v-7.585c0-1.27-0.249-2.196-0.74-2.78
		c-0.496-0.585-1.266-0.877-2.313-0.877c-1.229,0-2.211,0.389-2.946,1.163c-0.734,0.776-1.104,1.799-1.104,3.068v7.011
		C243.902,47.683,243.389,48.196,242.361,48.196z"/>
	<path d="M263.214,48.257c-3.565,0-5.349-1.984-5.349-5.955v-7.735c0-1.027,0.502-1.541,1.51-1.541c1.027,0,1.541,0.514,1.541,1.541
		v7.767c0,1.188,0.242,2.065,0.727,2.63c0.483,0.563,1.249,0.846,2.296,0.846c1.148,0,2.08-0.383,2.796-1.148
		c0.715-0.765,1.073-1.793,1.073-3.082v-7.012c0-1.027,0.513-1.541,1.54-1.541c1.008,0,1.512,0.514,1.512,1.541v12.089
		c0,1.027-0.493,1.541-1.48,1.541s-1.48-0.514-1.48-1.541v-1.028c-0.483,0.866-1.129,1.521-1.936,1.965
		C265.158,48.033,264.242,48.257,263.214,48.257z"/>
	<path d="M279.592,48.257c-1.57,0-2.755-0.454-3.551-1.36c-0.797-0.906-1.193-2.236-1.193-3.989V28.009
		c0-1.027,0.504-1.542,1.512-1.542c1.027,0,1.541,0.515,1.541,1.542v14.718c0,1.994,0.807,2.991,2.418,2.991
		c0.182,0,0.342-0.011,0.482-0.031c0.141-0.019,0.283-0.029,0.424-0.029c0.241-0.02,0.412,0.045,0.514,0.197
		c0.101,0.15,0.15,0.457,0.15,0.92c0,0.827-0.383,1.3-1.148,1.422c-0.201,0.02-0.397,0.034-0.589,0.046
		C279.961,48.25,279.773,48.257,279.592,48.257z"/>
	<path d="M290.715,35.11c-1.271,0-2.277,0.394-3.022,1.179c-0.746,0.785-1.199,1.834-1.36,3.144h8.249
		c-0.06-1.371-0.423-2.433-1.087-3.188C292.828,35.488,291.902,35.11,290.715,35.11z M291.168,48.257
		c-2.419,0-4.322-0.681-5.713-2.04s-2.086-3.22-2.086-5.576c0-1.511,0.308-2.846,0.922-4.004c0.615-1.158,1.466-2.061,2.555-2.705
		c1.088-0.645,2.336-0.968,3.746-0.968c2.035,0,3.637,0.651,4.806,1.95c1.169,1.301,1.753,3.088,1.753,5.364
		c0,0.685-0.403,1.026-1.208,1.026h-9.61c0.221,3.064,1.844,4.595,4.865,4.595c0.604,0,1.238-0.076,1.904-0.226
		c0.664-0.152,1.309-0.429,1.934-0.832c0.424-0.242,0.789-0.328,1.104-0.258c0.311,0.071,0.539,0.242,0.68,0.514
		c0.141,0.273,0.168,0.576,0.076,0.907c-0.092,0.333-0.328,0.62-0.711,0.86c-0.686,0.465-1.486,0.812-2.401,1.043
		C292.864,48.141,291.992,48.257,291.168,48.257z"/>
</g>
</svg>
